name processed_emg_signals
nRows=48
nColumns=7
 
endheader
time	LGLTMED	LRF	LADDLONG	LST	LTA	LGM
1.852	0.1838667323700422	0.1935661608732766	0.3908813449386142	0.1366428793023095	0.5456601419043958	0.1103539460655287
1.853	0.1843088457520191	0.1932725563466364	0.3905527099360936	0.1380159261610516	0.5504242608620487	0.1098962978598449
1.854	0.1847675431385006	0.1929823289062203	0.3902595875482182	0.1393998073484929	0.5550429970798385	0.109405897786637
1.855	0.1852422537274613	0.192695494258798	0.3900020843406573	0.1407939046928562	0.5595138925237281	0.1088840389735125
1.856	0.185732401352182	0.192412066654892	0.3897802765431954	0.1421975544915078	0.5638346269603549	0.1083320342235941
1.857	0.1862374050862759	0.1921320591409648	0.389594209483856	0.1436100473410608	0.5680030201894816	0.1077512139411784
1.858	0.1867566798425463	0.191855483821072	0.3894438970883875	0.1450306280821059	0.5720170340966693	0.107142924059118
1.859	0.1872896369647317	0.1915823521264853	0.3893293214461982	0.1464584958605269	0.5758747745256002	0.1065085239710015
1.86	0.1878356848114227	0.1913126750911624	0.3892504324447944	0.1478928043070414	0.579574492970426	0.1058493844714297
1.861	0.1883942293306832	0.1910464636307579	0.3892071474724505	0.1493326618365126	0.5831145880897427	0.1051668857077368
1.862	0.1889646746246736	0.1907837288221877	0.3891993511892608	0.150777132067942	0.5864936070447115	0.1044624151466413
1.863	0.1895464235026271	0.1905244821806834	0.389226895365637	0.1522252343661307	0.5897102466644372	0.1037373655594106
1.864	0.1901388780206886	0.1902687359300713	0.3892895987876487	0.1536759445055372	0.5927633544416009	0.1029931330288649
1.865	0.1907414400067114	0.1900165032624944	0.3893872472279368	0.1551281954568711	0.5956519293613894	0.1022311149813263
1.866	0.1913535115677906	0.1897677985832078	0.3895195934809614	0.1565808782965318	0.5983751225665992	0.1014527082462608
1.867	0.1919744955786996	0.1895226377362653	0.3896863574615585	0.1580328432388569	0.600932237861698	0.1006593071460657
1.868	0.1926037961494989	0.1892810382069753	0.3898872263646599	0.1594829007905519	0.6033227320580071	0.0998523016182891
1.869	0.1932408190707681	0.1890430192977263	0.3901218548843943	0.1609298230264228	0.605546215161198	0.0990330753725274
1.87	0.1938849722353053	0.1888086022745427	0.3903898654900036	0.1623723449849294	0.6076024504011404	0.0982030040840891
1.871	0.1945356660350004	0.1885778104829928	0.3906908487562464	0.1638091661818581	0.6094913541032602	0.0973634536266269
1.872	0.1951923137318515	0.1883506694333977	0.3910243637453	0.1652389522398933	0.6112129954000901	0.0965157783457111
1.873	0.1958543318021411	0.1881272068564732	0.3913899384360839	0.1666603366316879	0.6127675957815362	0.0956613193753431
1.874	0.1965211402534749	0.1879074527310935	0.3917870701973481	0.1680719225334227	0.6141555284826765	0.0948014029992087
1.875	0.1971921629151062	0.1876914392866092	0.392215226300843	0.1694722847856015	0.6153773177081099	0.0939373390584458
1.8760000000000001	0.1978668277021798	0.1874792009822823	0.3926738444713082	0.1708599719573216	0.6164336376921231	0.0930704194074772
1.877	0.1985445668557256	0.1872707744660399	0.3931623334705616	0.1722335085100384	0.6173253115941083	0.0922019164194192
1.8780000000000001	0.1992248171601483	0.1870661985151626	0.3936800737138773	0.1735913970563168	0.618053310228981	0.0913330815424677
1.879	0.1999070201402413	0.1868655139610034	0.3942264179153288	0.1749321207089214	0.6186187506328181	0.0904651439084936
1.8800000000000001	0.2005906222392178	0.1866687636001097	0.3948006917607695	0.1762541455150127	0.6190228944645466	0.0895993089950684
1.881	0.201275074979645	0.1864759920939734	0.3954021946038889	0.1775559229698258	0.6192671462452322	0.0887367573418699
1.8820000000000001	0.2019598351082265	0.1862872458596267	0.3960302001832307	0.1788358926038157	0.6193530514370063	0.0878786433224648
1.883	0.2026443647258112	0.1861025729530381	0.3966839573561257	0.1800924846367118	0.6192822943639811	0.0870260939723571
1.8840000000000001	0.2033281314037856	0.1859220229473842	0.3973626908471818	0.1813241226916643	0.6190566959771808	0.0861802078741301
1.885	0.204010608288143	0.1857456468083598	0.398065602009522	0.1825292265620995	0.6186782114647549	0.0853420541004844
1.8860000000000001	0.204691274192569	0.1855734967679935	0.3987918695980421	0.1837062150236172	0.6181489277075378	0.0845126712158492
1.887	0.2053696136814996	0.1854056261991333	0.399540650554721	0.1848535086826441	0.6174710605785226	0.0836930663370181
1.8880000000000001	0.2060451171444628	0.1852420894917611	0.4003110808067668	0.1859695328531786	0.6166469520838471	0.0828842142530504
1.889	0.206717280862548	0.1850829419330929	0.4011022760786882	0.187052720452313	0.6156790673422016	0.0820870566044821
1.8900000000000001	0.2073856070676509	0.1849282395930096	0.4019133327188025	0.1881015149048748	0.6145699913998801	0.0813025011216156
1.891	0.208049603995466	0.184778039216468	0.4027433285411481	0.1891143730468724	0.613322425879696	0.0805314209216192
1.8920000000000001	0.2087087859322826	0.1846323981249902	0.4035913236828318	0.1900897680171328	0.6119391854635762	0.0797746538639828
1.893	0.2093626732559927	0.1844913741290723	0.4044563614778367	0.1910261921259492	0.6104231942104971	0.0790330019639091
1.8940000000000001	0.2100107924714529	0.1843550254533036	0.405337469346567	0.1919221596895464	0.608777481712943	0.0783072308633545
1.895	0.2106526762404088	0.1842234106755602	0.4062336597023067	0.1927762098190179	0.6070051790958199	0.0775980693594781
1.8960000000000001	0.2112878634062665	0.184096588681175	0.4071439308742912	0.1935869091525596	0.6051095148620199	0.0769062089902145
1.897	0.2119158990141181	0.183974618632354	0.4080672680479043	0.1943528545201102	0.6030938105887638	0.0762323036767269
1.8980000000000001	0.2125363343261614	0.1838575599525051	0.4090026442222124	0.1950726755303442	0.6009614764790182	0.0755769694221427
1.899	0.2131487268325863	0.183745472325092	0.4099490211851387	0.1957450370707442	0.5987160067729252	0.0749407840660247
